<?xml version="1.0" encoding="utf-8"?>
<!-- Generator: Adobe Illustrator 22.1.0, SVG Export Plug-In . SVG Version: 6.00 Build 0)  -->
<svg version="1.1" id="Layer_1" xmlns="http://www.w3.org/2000/svg" xmlns:xlink="http://www.w3.org/1999/xlink" x="0px" y="0px"
	 viewBox="0 0 60 69" style="enable-background:new 0 0 263 68.7;" xml:space="preserve">
<style type="text/css">
	.st0{fill:#E20046;}
	.st1{fill:#231F20;}
</style>
<g>
	<polygon class="st0" points="53.6,68.7 59.1,54.5 48.2,54.5 	"/>
	<path class="st0" d="M45.2,53.4C50.4,67.2,51,68.7,51,68.7l-14.3,0l-4.7-12.3C28.2,45.2,23.4,43,16.4,43h-3.2v22.5H0V0h23.6
		c12.5,0,23.3,6.6,23.3,19.9c0,13.2-11.8,18.4-11.8,18.4S39.9,39.7,45.2,53.4z M13.2,30.6h8.3c6.1,0,12.1-1.9,12.1-9.3
		c0-6.1-5-8.9-12.1-8.9h-8.3V30.6z"/>
</g>
</svg>
